<svg preserveAspectRatio="none" width="100%" height="100%" overflow="visible" style="display: block;" viewBox="0 0 24 24" fill="none" xmlns="http://www.w3.org/2000/svg">
<g id="Group 48095608">
<circle id="Ellipse 18" cx="12" cy="12" r="12" fill="var(--fill-0, #FF7A01)"/>
<path id="Vector" d="M12.0001 20C7.58892 20 4 16.4113 4 12C4 7.58874 7.58892 4 12.0001 4C14.5289 4 16.8553 5.15788 18.3828 7.17679C18.6662 7.55115 18.63 8.07682 18.2979 8.40894L11.8168 14.8902C11.4498 15.2573 10.8541 15.2573 10.4872 14.8902L8.22576 12.6287C7.85837 12.2616 7.85837 11.6663 8.22576 11.2991C8.59291 10.9319 9.18844 10.9319 9.55536 11.2991L11.1521 12.8956L16.3517 7.69574C15.2077 6.53345 13.6609 5.88036 12.0001 5.88036C8.62587 5.88036 5.88056 8.6257 5.88056 12C5.88056 15.3743 8.62587 18.1196 12.0001 18.1196C15.3744 18.1196 18.1197 15.3743 18.1197 12C18.1197 11.4808 18.5407 11.0598 19.0598 11.0598C19.579 11.0598 20 11.4808 20 12C20 16.4113 16.4113 20 12.0001 20Z" fill="var(--fill-0, white)"/>
</g>
</svg>
