<svg preserveAspectRatio="none" width="100%" height="100%" overflow="visible" style="display: block;" viewBox="0 0 28.0358 26.7868" fill="none" xmlns="http://www.w3.org/2000/svg">
<path id="Star 1" d="M12.8317 0.86183C13.2051 -0.287277 14.8307 -0.287277 15.2041 0.861831L17.6582 8.41486C17.8252 8.92875 18.3041 9.27669 18.8444 9.27669H26.7862C27.9944 9.27669 28.4968 10.8228 27.5193 11.533L21.0943 16.201C20.6572 16.5186 20.4742 17.0816 20.6412 17.5955L23.0953 25.1485C23.4687 26.2976 22.1535 27.2532 21.176 26.543L14.751 21.875C14.3139 21.5573 13.7219 21.5573 13.2848 21.875L6.8598 26.543C5.88231 27.2532 4.56711 26.2976 4.94048 25.1485L7.39461 17.5955C7.56158 17.0816 7.37866 16.5186 6.94151 16.201L0.516527 11.533C-0.460962 10.8228 0.0414008 9.27669 1.24964 9.27669H9.19136C9.73171 9.27669 10.2106 8.92875 10.3776 8.41485L12.8317 0.86183Z" fill="var(--fill-0, #F7871B)"/>
</svg>
